<svg xmlns="http://www.w3.org/2000/svg" width="417.28" height="35" viewBox="0 0 417.28 35"><rect class="svg__rect" x="0" y="0" width="117.03" height="35" fill="#8FC965"/><rect class="svg__rect" x="115.03" y="0" width="302.25" height="35" fill="#5D9741"/><path class="svg__text" d="M17.33 22L14.22 22L14.22 13.47L17.14 13.47Q18.59 13.47 19.34 14.05Q20.10 14.63 20.10 15.78L20.10 15.78Q20.10 16.36 19.78 16.83Q19.47 17.30 18.86 17.56L18.86 17.56Q19.55 17.75 19.93 18.26Q20.31 18.78 20.31 19.51L20.31 19.51Q20.31 20.71 19.53 21.36Q18.76 22 17.33 22L17.33 22ZM15.70 18.15L15.70 20.82L17.35 20.82Q18.04 20.82 18.44 20.47Q18.83 20.13 18.83 19.51L18.83 19.51Q18.83 18.18 17.47 18.15L17.47 18.15L15.70 18.15ZM15.70 14.66L15.70 17.06L17.15 17.06Q17.84 17.06 18.23 16.75Q18.62 16.43 18.62 15.86L18.62 15.86Q18.62 15.23 18.26 14.95Q17.90 14.66 17.14 14.66L17.14 14.66L15.70 14.66ZM24.64 19.16L24.64 19.16L24.64 13.47L26.12 13.47L26.12 19.18Q26.12 20.03 26.55 20.48Q26.98 20.93 27.83 20.93L27.83 20.93Q29.54 20.93 29.54 19.13L29.54 19.13L29.54 13.47L31.02 13.47L31.02 19.17Q31.02 20.53 30.15 21.32Q29.28 22.12 27.83 22.12L27.83 22.12Q26.36 22.12 25.50 21.33Q24.64 20.55 24.64 19.16ZM37.15 22L35.67 22L35.67 13.47L37.15 13.47L37.15 22ZM47.32 22L41.96 22L41.96 13.47L43.44 13.47L43.44 20.82L47.32 20.82L47.32 22ZM53.12 14.66L50.49 14.66L50.49 13.47L57.25 13.47L57.25 14.66L54.59 14.66L54.59 22L53.12 22L53.12 14.66ZM68.37 22L66.40 13.47L67.87 13.47L69.20 19.88L70.82 13.47L72.07 13.47L73.68 19.89L74.99 13.47L76.46 13.47L74.49 22L73.07 22L71.45 15.77L69.79 22L68.37 22ZM82.10 22L80.62 22L80.62 13.47L82.10 13.47L82.10 22ZM88.59 14.66L85.95 14.66L85.95 13.47L92.72 13.47L92.72 14.66L90.06 14.66L90.06 22L88.59 22L88.59 14.66ZM97.96 22L96.48 22L96.48 13.47L97.96 13.47L97.96 17.02L101.77 17.02L101.77 13.47L103.25 13.47L103.25 22L101.77 22L101.77 18.21L97.96 18.21L97.96 22Z" fill="#FFFFFF"/><path class="svg__text" d="M131.42 22L129.22 22L129.22 13.60L131.17 13.60L134.13 18.45L137.01 13.60L138.96 13.60L138.99 22L136.81 22L136.78 17.55L134.62 21.17L133.57 21.17L131.42 17.67L131.42 22ZM146.53 22L144.15 22L144.15 13.60L146.53 13.60L146.53 22ZM158.09 22L151.70 22L151.70 13.60L154.08 13.60L154.08 20.11L158.09 20.11L158.09 22ZM164.88 22L162.50 22L162.50 13.60L164.88 13.60L164.88 22ZM171.85 15.48L169.27 15.48L169.27 13.60L176.79 13.60L176.79 15.48L174.22 15.48L174.22 22L171.85 22L171.85 15.48ZM182.58 22L180.15 22L183.86 13.60L186.21 13.60L189.92 22L187.45 22L186.79 20.37L183.24 20.37L182.58 22ZM185.02 15.93L183.93 18.61L186.09 18.61L185.02 15.93ZM196.45 22L194.08 22L194.08 13.60L197.92 13.60Q199.06 13.60 199.90 13.98Q200.74 14.35 201.19 15.06Q201.65 15.76 201.65 16.71L201.65 16.71Q201.65 17.62 201.22 18.30Q200.80 18.98 200.00 19.36L200.00 19.36L201.82 22L199.27 22L197.75 19.77L196.45 19.77L196.45 22ZM196.45 15.47L196.45 17.93L197.77 17.93Q198.50 17.93 198.88 17.61Q199.25 17.29 199.25 16.71L199.25 16.71Q199.25 16.12 198.88 15.79Q198.50 15.47 197.77 15.47L197.77 15.47L196.45 15.47ZM208.57 18.95L205.36 13.60L207.87 13.60L209.86 16.94L211.85 13.60L214.16 13.60L210.94 18.99L210.94 22L208.57 22L208.57 18.95ZM224.78 17.80L224.78 17.80Q224.78 16.54 225.38 15.54Q225.98 14.55 227.05 13.99Q228.12 13.43 229.46 13.43L229.46 13.43Q230.64 13.43 231.58 13.83Q232.51 14.22 233.13 14.97L233.13 14.97L231.62 16.33Q230.78 15.40 229.60 15.40L229.60 15.40Q229.59 15.40 229.58 15.40L229.58 15.40Q228.50 15.40 227.84 16.06Q227.18 16.71 227.18 17.80L227.18 17.80Q227.18 18.50 227.48 19.04Q227.78 19.59 228.32 19.89Q228.86 20.20 229.56 20.20L229.56 20.20Q230.25 20.20 230.84 19.93L230.84 19.93L230.84 17.62L232.94 17.62L232.94 21.10Q232.22 21.61 231.29 21.89Q230.35 22.17 229.41 22.17L229.41 22.17Q228.09 22.17 227.04 21.61Q225.98 21.05 225.38 20.05Q224.78 19.06 224.78 17.80ZM240.31 22L237.93 22L237.93 13.60L241.78 13.60Q242.92 13.60 243.76 13.98Q244.59 14.35 245.05 15.06Q245.51 15.76 245.51 16.71L245.51 16.71Q245.51 17.62 245.08 18.30Q244.65 18.98 243.86 19.36L243.86 19.36L245.67 22L243.13 22L241.61 19.77L240.31 19.77L240.31 22ZM240.31 15.47L240.31 17.93L241.63 17.93Q242.36 17.93 242.73 17.61Q243.11 17.29 243.11 16.71L243.11 16.71Q243.11 16.12 242.73 15.79Q242.36 15.47 241.63 15.47L241.63 15.47L240.31 15.47ZM251.71 22L249.29 22L253.00 13.60L255.34 13.60L259.06 22L256.59 22L255.93 20.37L252.38 20.37L251.71 22ZM254.15 15.93L253.07 18.61L255.23 18.61L254.15 15.93ZM267.18 22L263.21 22L263.21 13.60L267.18 13.60Q268.57 13.60 269.63 14.12Q270.70 14.63 271.29 15.58Q271.88 16.53 271.88 17.80L271.88 17.80Q271.88 19.07 271.29 20.02Q270.70 20.97 269.63 21.48Q268.57 22 267.18 22L267.18 22ZM265.59 15.50L265.59 20.10L267.09 20.10Q268.17 20.10 268.82 19.49Q269.47 18.88 269.47 17.80L269.47 17.80Q269.47 16.72 268.82 16.11Q268.17 15.50 267.09 15.50L267.09 15.50L265.59 15.50ZM283.35 22L276.60 22L276.60 13.60L283.20 13.60L283.20 15.44L278.96 15.44L278.96 16.85L282.69 16.85L282.69 18.63L278.96 18.63L278.96 20.17L283.35 20.17L283.35 22ZM301.87 22L295.13 22L295.13 13.60L301.72 13.60L301.72 15.44L297.48 15.44L297.48 16.85L301.21 16.85L301.21 18.63L297.48 18.63L297.48 20.17L301.87 20.17L301.87 22ZM308.53 22L305.81 22L308.87 17.75L305.94 13.60L308.62 13.60L310.30 16.02L311.95 13.60L314.53 13.60L311.60 17.66L314.72 22L311.98 22L310.24 19.40L308.53 22ZM321.38 22L319.00 22L319.00 13.60L322.85 13.60Q323.98 13.60 324.82 13.98Q325.67 14.35 326.12 15.06Q326.58 15.76 326.58 16.71L326.58 16.71Q326.58 17.66 326.12 18.35Q325.67 19.05 324.82 19.42Q323.98 19.80 322.85 19.80L322.85 19.80L321.38 19.80L321.38 22ZM321.38 15.47L321.38 17.93L322.70 17.93Q323.43 17.93 323.80 17.61Q324.18 17.29 324.18 16.71L324.18 16.71Q324.18 16.12 323.80 15.80Q323.43 15.47 322.70 15.47L322.70 15.47L321.38 15.47ZM337.72 22L331.33 22L331.33 13.60L333.71 13.60L333.71 20.11L337.72 20.11L337.72 22ZM341.71 17.80L341.71 17.80Q341.71 16.55 342.31 15.55Q342.92 14.56 343.98 14.00Q345.04 13.43 346.37 13.43L346.37 13.43Q347.70 13.43 348.77 14.00Q349.83 14.56 350.44 15.55Q351.04 16.55 351.04 17.80L351.04 17.80Q351.04 19.05 350.44 20.04Q349.83 21.04 348.77 21.60Q347.71 22.17 346.37 22.17L346.37 22.17Q345.04 22.17 343.98 21.60Q342.92 21.04 342.31 20.04Q341.71 19.05 341.71 17.80ZM344.10 17.80L344.10 17.80Q344.10 18.51 344.41 19.05Q344.71 19.60 345.22 19.90Q345.74 20.20 346.37 20.20L346.37 20.20Q347.01 20.20 347.53 19.90Q348.04 19.60 348.34 19.05Q348.64 18.51 348.64 17.80L348.64 17.80Q348.64 17.09 348.34 16.54Q348.04 16 347.53 15.70Q347.01 15.40 346.37 15.40L346.37 15.40Q345.73 15.40 345.22 15.70Q344.71 16 344.41 16.54Q344.10 17.09 344.10 17.80ZM355.18 21.24L355.18 21.24L355.96 19.49Q356.53 19.86 357.27 20.09Q358.01 20.32 358.74 20.32L358.74 20.32Q360.10 20.32 360.11 19.64L360.11 19.64Q360.11 19.28 359.72 19.11Q359.33 18.93 358.46 18.74L358.46 18.74Q357.51 18.53 356.88 18.30Q356.24 18.06 355.79 17.55Q355.33 17.03 355.33 16.16L355.33 16.16Q355.33 15.39 355.75 14.77Q356.17 14.15 357.00 13.79Q357.84 13.43 359.05 13.43L359.05 13.43Q359.87 13.43 360.68 13.62Q361.48 13.80 362.10 14.17L362.10 14.17L361.37 15.93Q360.17 15.28 359.03 15.28L359.03 15.28Q358.33 15.28 358.00 15.49Q357.68 15.70 357.68 16.04L357.68 16.04Q357.68 16.37 358.06 16.54Q358.45 16.71 359.30 16.89L359.30 16.89Q360.26 17.10 360.89 17.33Q361.52 17.56 361.98 18.07Q362.44 18.58 362.44 19.46L362.44 19.46Q362.44 20.21 362.03 20.83Q361.61 21.44 360.77 21.80Q359.92 22.17 358.72 22.17L358.72 22.17Q357.70 22.17 356.74 21.92Q355.78 21.67 355.18 21.24ZM369.40 22L367.02 22L367.02 13.60L369.40 13.60L369.40 22ZM377.16 22L373.57 13.60L376.14 13.60L378.42 19.07L380.74 13.60L383.09 13.60L379.50 22L377.16 22ZM393.99 22L387.25 22L387.25 13.60L393.84 13.60L393.84 15.44L389.60 15.44L389.60 16.85L393.34 16.85L393.34 18.63L389.60 18.63L389.60 20.17L393.99 20.17L393.99 22ZM398.21 21.24L398.21 21.24L398.99 19.49Q399.55 19.86 400.30 20.09Q401.04 20.32 401.76 20.32L401.76 20.32Q403.13 20.32 403.13 19.64L403.13 19.64Q403.13 19.28 402.74 19.11Q402.35 18.93 401.49 18.74L401.49 18.74Q400.54 18.53 399.90 18.30Q399.26 18.06 398.81 17.55Q398.36 17.03 398.36 16.16L398.36 16.16Q398.36 15.39 398.78 14.77Q399.19 14.15 400.03 13.79Q400.86 13.43 402.07 13.43L402.07 13.43Q402.90 13.43 403.70 13.62Q404.51 13.80 405.12 14.17L405.12 14.17L404.39 15.93Q403.19 15.28 402.06 15.28L402.06 15.28Q401.35 15.28 401.03 15.49Q400.71 15.70 400.71 16.04L400.71 16.04Q400.71 16.37 401.09 16.54Q401.47 16.71 402.32 16.89L402.32 16.89Q403.28 17.10 403.91 17.33Q404.54 17.56 405.01 18.07Q405.47 18.58 405.47 19.46L405.47 19.46Q405.47 20.21 405.05 20.83Q404.63 21.44 403.79 21.80Q402.95 22.17 401.75 22.17L401.75 22.17Q400.73 22.17 399.77 21.92Q398.81 21.67 398.21 21.24Z" fill="#FFFFFF" x="128.03"/></svg>