<svg xmlns="http://www.w3.org/2000/svg" width="150.53000000000003" height="35" viewBox="0 0 150.53000000000003 35"><rect class="svg__rect" x="0" y="0" width="73.34" height="35" fill="#D35B09"/><rect class="svg__rect" x="71.34" y="0" width="79.19000000000001" height="35" fill="#FF6800"/><path class="svg__text" d="M15.70 22L14.22 22L14.22 13.47L15.70 13.47L19.51 19.54L19.51 13.47L20.98 13.47L20.98 22L19.50 22L15.70 15.95L15.70 22ZM25.46 18.00L25.46 18.00L25.46 17.52Q25.46 16.28 25.90 15.32Q26.34 14.37 27.15 13.86Q27.95 13.35 28.99 13.35Q30.04 13.35 30.84 13.85Q31.65 14.35 32.09 15.29Q32.53 16.23 32.53 17.48L32.53 17.48L32.53 17.96Q32.53 19.21 32.10 20.16Q31.67 21.10 30.86 21.61Q30.06 22.12 29.01 22.12L29.01 22.12Q27.97 22.12 27.16 21.61Q26.35 21.10 25.90 20.17Q25.46 19.23 25.46 18.00ZM26.94 17.46L26.94 17.96Q26.94 19.36 27.49 20.13Q28.03 20.90 29.01 20.90L29.01 20.90Q29.99 20.90 30.52 20.15Q31.05 19.40 31.05 17.96L31.05 17.96L31.05 17.51Q31.05 16.09 30.52 15.34Q29.98 14.58 28.99 14.58L28.99 14.58Q28.03 14.58 27.49 15.33Q26.95 16.09 26.94 17.46L26.94 17.46ZM38.68 14.66L36.04 14.66L36.04 13.47L42.81 13.47L42.81 14.66L40.15 14.66L40.15 22L38.68 22L38.68 14.66ZM53.32 22L51.78 22L55.00 13.47L56.33 13.47L59.56 22L58.02 22L57.32 20.01L54.01 20.01L53.32 22ZM55.67 15.28L54.43 18.82L56.90 18.82L55.67 15.28Z" fill="#FFFFFF"/><path class="svg__text" d="M88.11 22L84.52 13.60L87.09 13.60L89.37 19.07L91.70 13.60L94.05 13.60L90.45 22L88.11 22ZM100.58 22L98.20 22L98.20 13.60L100.58 13.60L100.58 22ZM108.13 22L105.75 22L105.75 13.60L109.60 13.60Q110.74 13.60 111.58 13.98Q112.42 14.35 112.87 15.06Q113.33 15.76 113.33 16.71L113.33 16.71Q113.33 17.62 112.90 18.30Q112.48 18.98 111.68 19.36L111.68 19.36L113.49 22L110.95 22L109.43 19.77L108.13 19.77L108.13 22ZM108.13 15.47L108.13 17.93L109.45 17.93Q110.18 17.93 110.56 17.61Q110.93 17.29 110.93 16.71L110.93 16.71Q110.93 16.12 110.56 15.79Q110.18 15.47 109.45 15.47L109.45 15.47L108.13 15.47ZM118.05 18.26L118.05 18.26L118.05 13.60L120.43 13.60L120.43 18.19Q120.43 20.20 122.02 20.20L122.02 20.20Q123.60 20.20 123.60 18.19L123.60 18.19L123.60 13.60L125.95 13.60L125.95 18.26Q125.95 20.13 124.91 21.15Q123.87 22.17 122.00 22.17L122.00 22.17Q120.12 22.17 119.08 21.15Q118.05 20.13 118.05 18.26ZM130.45 21.24L130.45 21.24L131.23 19.49Q131.79 19.86 132.53 20.09Q133.28 20.32 134.00 20.32L134.00 20.32Q135.36 20.32 135.37 19.64L135.37 19.64Q135.37 19.28 134.98 19.11Q134.59 18.93 133.72 18.74L133.72 18.74Q132.77 18.53 132.14 18.30Q131.50 18.06 131.05 17.55Q130.59 17.03 130.59 16.16L130.59 16.16Q130.59 15.39 131.01 14.77Q131.43 14.15 132.27 13.79Q133.10 13.43 134.31 13.43L134.31 13.43Q135.13 13.43 135.94 13.62Q136.74 13.80 137.36 14.17L137.36 14.17L136.63 15.93Q135.43 15.28 134.30 15.28L134.30 15.28Q133.59 15.28 133.26 15.49Q132.94 15.70 132.94 16.04L132.94 16.04Q132.94 16.37 133.33 16.54Q133.71 16.71 134.56 16.89L134.56 16.89Q135.52 17.10 136.15 17.33Q136.78 17.56 137.24 18.07Q137.71 18.58 137.71 19.46L137.71 19.46Q137.71 20.21 137.29 20.83Q136.87 21.44 136.03 21.80Q135.19 22.17 133.98 22.17L133.98 22.17Q132.97 22.17 132.00 21.92Q131.04 21.67 130.45 21.24Z" fill="#FFFFFF" x="84.34"/></svg>