<svg xmlns="http://www.w3.org/2000/svg" width="267.41" height="35" viewBox="0 0 267.41 35"><rect class="svg__rect" x="0" y="0" width="120.73" height="35" fill="#3AC1D0"/><rect class="svg__rect" x="118.73" y="0" width="148.68" height="35" fill="#45A4B8"/><path class="svg__text" d="M16.25 14.66L13.61 14.66L13.61 13.47L20.38 13.47L20.38 14.66L17.72 14.66L17.72 22L16.25 22L16.25 14.66ZM25.62 22L24.14 22L24.14 13.47L25.62 13.47L25.62 17.02L29.43 17.02L29.43 13.47L30.91 13.47L30.91 22L29.43 22L29.43 18.21L25.62 18.21L25.62 22ZM41.23 22L35.65 22L35.65 13.47L41.19 13.47L41.19 14.66L37.13 14.66L37.13 17.02L40.64 17.02L40.64 18.19L37.13 18.19L37.13 20.82L41.23 20.82L41.23 22ZM53.70 22L50.64 13.47L52.26 13.47L54.41 20.14L56.57 13.47L58.20 13.47L55.13 22L53.70 22ZM61.88 18.00L61.88 18.00L61.88 17.52Q61.88 16.28 62.33 15.32Q62.77 14.37 63.57 13.86Q64.38 13.35 65.42 13.35Q66.47 13.35 67.27 13.85Q68.08 14.35 68.52 15.29Q68.96 16.23 68.96 17.48L68.96 17.48L68.96 17.96Q68.96 19.21 68.53 20.16Q68.09 21.10 67.29 21.61Q66.48 22.12 65.43 22.12L65.43 22.12Q64.40 22.12 63.59 21.61Q62.77 21.10 62.33 20.17Q61.89 19.23 61.88 18.00ZM63.37 17.46L63.37 17.96Q63.37 19.36 63.91 20.13Q64.46 20.90 65.43 20.90L65.43 20.90Q66.42 20.90 66.95 20.15Q67.48 19.40 67.48 17.96L67.48 17.96L67.48 17.51Q67.48 16.09 66.94 15.34Q66.41 14.58 65.42 14.58L65.42 14.58Q64.46 14.58 63.92 15.33Q63.38 16.09 63.37 17.46L63.37 17.46ZM74.99 22L73.51 22L73.51 13.47L74.99 13.47L74.99 22ZM79.53 18.19L79.53 18.19L79.53 17.39Q79.53 16.19 79.96 15.27Q80.39 14.35 81.19 13.85Q81.99 13.35 83.04 13.35L83.04 13.35Q84.45 13.35 85.31 14.12Q86.17 14.89 86.31 16.29L86.31 16.29L84.83 16.29Q84.73 15.37 84.30 14.96Q83.87 14.55 83.04 14.55L83.04 14.55Q82.07 14.55 81.55 15.26Q81.03 15.96 81.02 17.33L81.02 17.33L81.02 18.09Q81.02 19.47 81.52 20.20Q82.01 20.92 82.97 20.92L82.97 20.92Q83.84 20.92 84.28 20.53Q84.72 20.14 84.83 19.22L84.83 19.22L86.31 19.22Q86.18 20.59 85.30 21.35Q84.42 22.12 82.97 22.12L82.97 22.12Q81.95 22.12 81.17 21.63Q80.39 21.15 79.97 20.26Q79.55 19.37 79.53 18.19ZM96.20 22L90.62 22L90.62 13.47L96.16 13.47L96.16 14.66L92.11 14.66L92.11 17.02L95.61 17.02L95.61 18.19L92.11 18.19L92.11 20.82L96.20 20.82L96.20 22ZM99.96 19.42L99.96 19.42L101.45 19.42Q101.45 20.15 101.93 20.55Q102.41 20.95 103.30 20.95L103.30 20.95Q104.08 20.95 104.47 20.63Q104.86 20.32 104.86 19.80L104.86 19.80Q104.86 19.24 104.46 18.94Q104.06 18.63 103.03 18.32Q102.00 18.01 101.39 17.63L101.39 17.63Q100.23 16.90 100.23 15.72L100.23 15.72Q100.23 14.69 101.07 14.02Q101.91 13.35 103.25 13.35L103.25 13.35Q104.14 13.35 104.84 13.68Q105.54 14.01 105.93 14.61Q106.33 15.22 106.33 15.96L106.33 15.96L104.86 15.96Q104.86 15.29 104.44 14.91Q104.02 14.54 103.24 14.54L103.24 14.54Q102.51 14.54 102.11 14.85Q101.71 15.16 101.71 15.71L101.71 15.71Q101.71 16.18 102.14 16.50Q102.58 16.81 103.57 17.10Q104.57 17.40 105.17 17.78Q105.78 18.16 106.06 18.65Q106.34 19.13 106.34 19.79L106.34 19.79Q106.34 20.86 105.52 21.49Q104.70 22.12 103.30 22.12L103.30 22.12Q102.38 22.12 101.60 21.77Q100.82 21.43 100.39 20.83Q99.96 20.22 99.96 19.42Z" fill="#FFFFFF"/><path class="svg__text" d="M134.34 22L131.91 22L135.62 13.60L137.96 13.60L141.68 22L139.21 22L138.55 20.37L135.00 20.37L134.34 22ZM136.77 15.93L135.69 18.61L137.85 18.61L136.77 15.93ZM148.21 22L145.83 22L145.83 13.60L149.68 13.60Q150.82 13.60 151.66 13.98Q152.49 14.35 152.95 15.06Q153.41 15.76 153.41 16.71L153.41 16.71Q153.41 17.62 152.98 18.30Q152.55 18.98 151.76 19.36L151.76 19.36L153.57 22L151.03 22L149.51 19.77L148.21 19.77L148.21 22ZM148.21 15.47L148.21 17.93L149.53 17.93Q150.26 17.93 150.63 17.61Q151.01 17.29 151.01 16.71L151.01 16.71Q151.01 16.12 150.63 15.79Q150.26 15.47 149.53 15.47L149.53 15.47L148.21 15.47ZM164.94 22L158.20 22L158.20 13.60L164.79 13.60L164.79 15.44L160.55 15.44L160.55 16.85L164.28 16.85L164.28 18.63L160.55 18.63L160.55 20.17L164.94 20.17L164.94 22ZM176.13 21.24L176.13 21.24L176.91 19.49Q177.47 19.86 178.22 20.09Q178.96 20.32 179.68 20.32L179.68 20.32Q181.05 20.32 181.05 19.64L181.05 19.64Q181.05 19.28 180.66 19.11Q180.27 18.93 179.41 18.74L179.41 18.74Q178.46 18.53 177.82 18.30Q177.19 18.06 176.73 17.55Q176.28 17.03 176.28 16.16L176.28 16.16Q176.28 15.39 176.70 14.77Q177.12 14.15 177.95 13.79Q178.79 13.43 179.99 13.43L179.99 13.43Q180.82 13.43 181.62 13.62Q182.43 13.80 183.04 14.17L183.04 14.17L182.31 15.93Q181.11 15.28 179.98 15.28L179.98 15.28Q179.27 15.28 178.95 15.49Q178.63 15.70 178.63 16.04L178.63 16.04Q178.63 16.37 179.01 16.54Q179.39 16.71 180.24 16.89L180.24 16.89Q181.21 17.10 181.83 17.33Q182.46 17.56 182.93 18.07Q183.39 18.58 183.39 19.46L183.39 19.46Q183.39 20.21 182.97 20.83Q182.55 21.44 181.71 21.80Q180.87 22.17 179.67 22.17L179.67 22.17Q178.65 22.17 177.69 21.92Q176.73 21.67 176.13 21.24ZM187.54 17.80L187.54 17.80Q187.54 16.55 188.14 15.55Q188.75 14.56 189.81 14.00Q190.87 13.43 192.20 13.43L192.20 13.43Q193.53 13.43 194.60 14.00Q195.66 14.56 196.27 15.55Q196.87 16.55 196.87 17.80L196.87 17.80Q196.87 19.05 196.27 20.04Q195.66 21.04 194.60 21.60Q193.54 22.17 192.20 22.17L192.20 22.17Q190.87 22.17 189.81 21.60Q188.75 21.04 188.14 20.04Q187.54 19.05 187.54 17.80ZM189.94 17.80L189.94 17.80Q189.94 18.51 190.24 19.05Q190.54 19.60 191.05 19.90Q191.57 20.20 192.20 20.20L192.20 20.20Q192.84 20.20 193.36 19.90Q193.87 19.60 194.17 19.05Q194.47 18.51 194.47 17.80L194.47 17.80Q194.47 17.09 194.17 16.54Q193.87 16 193.36 15.70Q192.84 15.40 192.20 15.40L192.20 15.40Q191.56 15.40 191.05 15.70Q190.54 16 190.24 16.54Q189.94 17.09 189.94 17.80ZM214.96 22L208.57 22L208.57 13.60L210.95 13.60L210.95 20.11L214.96 20.11L214.96 22ZM218.95 17.80L218.95 17.80Q218.95 16.55 219.55 15.55Q220.16 14.56 221.22 14.00Q222.29 13.43 223.62 13.43L223.62 13.43Q224.95 13.43 226.01 14.00Q227.07 14.56 227.68 15.55Q228.29 16.55 228.29 17.80L228.29 17.80Q228.29 19.05 227.68 20.04Q227.07 21.04 226.01 21.60Q224.95 22.17 223.62 22.17L223.62 22.17Q222.29 22.17 221.22 21.60Q220.16 21.04 219.55 20.04Q218.95 19.05 218.95 17.80ZM221.35 17.80L221.35 17.80Q221.35 18.51 221.65 19.05Q221.95 19.60 222.47 19.90Q222.98 20.20 223.62 20.20L223.62 20.20Q224.25 20.20 224.77 19.90Q225.29 19.60 225.58 19.05Q225.88 18.51 225.88 17.80L225.88 17.80Q225.88 17.09 225.58 16.54Q225.29 16 224.77 15.70Q224.25 15.40 223.62 15.40L223.62 15.40Q222.98 15.40 222.46 15.70Q221.95 16 221.65 16.54Q221.35 17.09 221.35 17.80ZM232.94 18.26L232.94 18.26L232.94 13.60L235.32 13.60L235.32 18.19Q235.32 20.20 236.92 20.20L236.92 20.20Q238.50 20.20 238.50 18.19L238.50 18.19L238.50 13.60L240.84 13.60L240.84 18.26Q240.84 20.13 239.80 21.15Q238.76 22.17 236.89 22.17L236.89 22.17Q235.02 22.17 233.98 21.15Q232.94 20.13 232.94 18.26ZM249.90 22L245.93 22L245.93 13.60L249.90 13.60Q251.28 13.60 252.35 14.12Q253.42 14.63 254.00 15.58Q254.59 16.53 254.59 17.80L254.59 17.80Q254.59 19.07 254.00 20.02Q253.42 20.97 252.35 21.48Q251.28 22 249.90 22L249.90 22ZM248.31 15.50L248.31 20.10L249.81 20.10Q250.88 20.10 251.54 19.49Q252.19 18.88 252.19 17.80L252.19 17.80Q252.19 16.72 251.54 16.11Q250.88 15.50 249.81 15.50L249.81 15.50L248.31 15.50Z" fill="#FFFFFF" x="131.73000000000002"/></svg>